<svg id="Capa_1" data-name="Capa 1" xmlns="http://www.w3.org/2000/svg" xmlns:xlink="http://www.w3.org/1999/xlink" viewBox="0 0 427.63 354.13"><defs><style>.cls-1{fill:url(#Degradado_sin_nombre_10);}</style><linearGradient id="Degradado_sin_nombre_10" x1="250" y1="72.94" x2="250" y2="427.06" gradientUnits="userSpaceOnUse"><stop offset="0" stop-color="#00efd1"/><stop offset="1" stop-color="#00acea"/></linearGradient></defs><path class="cls-1" d="M272.49,427.06c-19.32,0-34.66-13.27-37.42-32.48l-40.73-285c-.15-1-.47-3.23-3.75-3.24h0c-3.28,0-3.6,2.2-3.75,3.25l-29,203.4a37.58,37.58,0,0,1-73.77,3.3c0-.06,0-.12,0-.19l-9.36-41.71c-2.55-10.58-11.89-18.54-21.76-18.54a16.71,16.71,0,0,1,0-33.41c25.37,0,48.2,18.64,54.28,44.33,0,.06,0,.12,0,.19l9.37,41.72c.23,1,.88,3.26,4.22,3.12a3.72,3.72,0,0,0,4-3.57l29-203.4c2.73-18.8,17.87-31.89,36.82-31.89h0c19,0,34.09,13.13,36.79,31.9l40.73,285c.15,1.05.59,3.89,4.49,3.81s4.24-2.89,4.37-4l5.68-50.52a16.7,16.7,0,0,1,33.2,3.74l-5.69,50.53c-2.2,19.5-17.44,33.32-37.06,33.62Zm141.36-123.3a1.46,1.46,0,0,0,0-.2l5.9-25c3.26-12.94,15-22.68,27.31-22.68a16.71,16.71,0,0,0,0-33.41c-27.69,0-52.82,20.24-59.75,48.12a1.46,1.46,0,0,0-.05.2l-5.9,25a2.1,2.1,0,0,1-2.51,1.81c-2-.08-2.25-1.29-2.37-2.05l-13.11-80c-2.85-17.07-16.92-28.69-34.23-28.23s-30.75,12.79-32.69,30l-7.08,62.52a16.71,16.71,0,1,0,33.2,3.76l7.07-62.52c0-.13,0-.23.05-.31a1.83,1.83,0,0,1,.66,0c0,.07,0,.16.06.26l13.11,80a35.62,35.62,0,0,0,34,30l1.47,0a35.59,35.59,0,0,0,34.79-27.26Z" transform="translate(-36.19 -72.94)"/></svg>