<svg id="Capa_1" data-name="Capa 1" xmlns="http://www.w3.org/2000/svg" xmlns:xlink="http://www.w3.org/1999/xlink" viewBox="0 0 445.21 294.18"><defs><style>.cls-1{fill:url(#Degradado_sin_nombre_10);}.cls-2{fill:url(#Degradado_sin_nombre_10-2);}.cls-3{fill:url(#Degradado_sin_nombre_10-3);}.cls-4{fill:url(#Nueva_muestra_de_degradado_1);}.cls-5{fill:url(#Degradado_sin_nombre_10-4);}.cls-6{fill:url(#Degradado_sin_nombre_10-5);}.cls-7{fill:url(#Degradado_sin_nombre_10-6);}.cls-8{fill:url(#Degradado_sin_nombre_10-7);}.cls-9{fill:url(#Degradado_sin_nombre_10-8);}.cls-10{fill:url(#Degradado_sin_nombre_10-9);}</style><linearGradient id="Degradado_sin_nombre_10" x1="44.3" y1="462.84" x2="44.3" y2="440.54" gradientTransform="matrix(5.22, 0, 0, -5.22, -4.22, 2610.02)" gradientUnits="userSpaceOnUse"><stop offset="0" stop-color="#00efd1"/><stop offset="1" stop-color="#00acea"/></linearGradient><linearGradient id="Degradado_sin_nombre_10-2" x1="35.51" y1="471.63" x2="35.51" y2="431.76" xlink:href="#Degradado_sin_nombre_10"/><linearGradient id="Degradado_sin_nombre_10-3" x1="26.63" y1="479.85" x2="26.63" y2="423.54" xlink:href="#Degradado_sin_nombre_10"/><linearGradient id="Nueva_muestra_de_degradado_1" x1="17.84" y1="471.63" x2="17.84" y2="431.76" xlink:href="#Degradado_sin_nombre_10"/><linearGradient id="Degradado_sin_nombre_10-4" x1="8.96" y1="463.41" x2="8.96" y2="439.98" xlink:href="#Degradado_sin_nombre_10"/><linearGradient id="Degradado_sin_nombre_10-5" x1="70.84" y1="479.85" x2="70.84" y2="423.54" xlink:href="#Degradado_sin_nombre_10"/><linearGradient id="Degradado_sin_nombre_10-6" x1="61.96" y1="471.63" x2="61.96" y2="431.76" xlink:href="#Degradado_sin_nombre_10"/><linearGradient id="Degradado_sin_nombre_10-7" x1="53.18" y1="467.19" x2="53.18" y2="436.2" xlink:href="#Degradado_sin_nombre_10"/><linearGradient id="Degradado_sin_nombre_10-8" x1="79.63" y1="471.63" x2="79.63" y2="431.76" xlink:href="#Degradado_sin_nombre_10"/><linearGradient id="Degradado_sin_nombre_10-9" x1="88.51" y1="463.41" x2="88.51" y2="439.98" xlink:href="#Degradado_sin_nombre_10"/></defs><path class="cls-1" d="M227.2,191.91a14.54,14.54,0,0,0-14.81,14.81v86.87a14.81,14.81,0,1,0,29.61,0V206.72A14.54,14.54,0,0,0,227.2,191.91Z" transform="translate(-27.79 -103.07)"/><path class="cls-2" d="M181.29,146a14.55,14.55,0,0,0-14.81,14.81V339.49a14.81,14.81,0,0,0,29.62,0V160.82A14.55,14.55,0,0,0,181.29,146Z" transform="translate(-27.79 -103.07)"/><path class="cls-3" d="M134.9,103.07a14.54,14.54,0,0,0-14.81,14.81V382.44a14.81,14.81,0,0,0,29.61,0V117.88A14.53,14.53,0,0,0,134.9,103.07Z" transform="translate(-27.79 -103.07)"/><path class="cls-4" d="M89,146a14.55,14.55,0,0,0-14.81,14.81V339.49a14.81,14.81,0,0,0,29.62,0V160.82A14.55,14.55,0,0,0,89,146Z" transform="translate(-27.79 -103.07)"/><path class="cls-5" d="M42.59,189a14.54,14.54,0,0,0-14.8,14.81v92.79a14.54,14.54,0,0,0,14.8,14.81A14.54,14.54,0,0,0,57.4,296.55V203.76A14.54,14.54,0,0,0,42.59,189Z" transform="translate(-27.79 -103.07)"/><path class="cls-6" d="M365.89,103.07a14.54,14.54,0,0,0-14.81,14.81V382.44a14.81,14.81,0,0,0,29.62,0V117.88A14.54,14.54,0,0,0,365.89,103.07Z" transform="translate(-27.79 -103.07)"/><path class="cls-7" d="M319.5,146a14.54,14.54,0,0,0-14.81,14.81V339.49a14.81,14.81,0,1,0,29.61,0V160.82A14.54,14.54,0,0,0,319.5,146Z" transform="translate(-27.79 -103.07)"/><path class="cls-8" d="M273.59,169.21A14.55,14.55,0,0,0,258.78,184V316.3a14.81,14.81,0,0,0,29.62,0V184A14.55,14.55,0,0,0,273.59,169.21Z" transform="translate(-27.79 -103.07)"/><path class="cls-9" d="M411.8,146A14.54,14.54,0,0,0,397,160.82V339.49a14.81,14.81,0,1,0,29.61,0V160.82A14.54,14.54,0,0,0,411.8,146Z" transform="translate(-27.79 -103.07)"/><path class="cls-10" d="M458.19,189a14.55,14.55,0,0,0-14.81,14.81v92.79a14.81,14.81,0,0,0,29.62,0V203.76A14.55,14.55,0,0,0,458.19,189Z" transform="translate(-27.79 -103.07)"/></svg>