<svg id="Capa_1" data-name="Capa 1" xmlns="http://www.w3.org/2000/svg" viewBox="0 0 403.99 451.5"><defs><style>.cls-1{fill:#00cc76;}.cls-2{fill:#00aa95;}.cls-3{fill:#c1674c;}.cls-4{fill:#8c4a50;}.cls-5{fill:#ff405c;}.cls-6{fill:#ff6c6c;}.cls-7{fill:#c63d4f;}</style></defs><path class="cls-1" d="M403.7,232.14a72.89,72.89,0,0,0-26.3-20.51,96.54,96.54,0,0,0-67-121.15,77.38,77.38,0,0,0-153.14,0,96.58,96.58,0,0,0-67,121.15,72.37,72.37,0,0,0,30.16,138.16H347.24A72.37,72.37,0,0,0,403.7,232.14Z" transform="translate(-48 -24.25)"/><path class="cls-2" d="M419.62,277.41a72.39,72.39,0,0,0-42.22-65.78,96.54,96.54,0,0,0-67-121.15,77.4,77.4,0,0,0-76.57-66.23V349.79H347.24A72.46,72.46,0,0,0,419.62,277.41Z" transform="translate(-48 -24.25)"/><path class="cls-3" d="M292.82,207.74l-17.9-17.9L246.47,218.3V134.42H221.15v38.22L192.7,144.19l-17.9,17.9,46.35,46.35v55.5L192.7,235.49l-17.9,17.9,46.35,46.35v144h25.32V254.09Z" transform="translate(-48 -24.25)"/><path class="cls-4" d="M274.92,189.84,246.47,218.3V134.42H233.81V443.75h12.66V254.09l46.35-46.35Z" transform="translate(-48 -24.25)"/><path class="cls-5" d="M452,374.75l-25.1-10.52-3.68-29.64-31.75,27.58V304l-25.22,14.62v51.22l5.05,67.09L423,450.66,417,416.72Z" transform="translate(-48 -24.25)"/><path class="cls-6" d="M341,304v58.14l-31.58-27.56-3.68,29.66-25.08,10.52,34.8,42-5.93,34,51.65-13.74,5-67.09V318.61Z" transform="translate(-48 -24.25)"/><path class="cls-5" d="M361.21,369.83v47.1l-26.47-30.25-7.59,6.65,34.06,38.92v43.5h5l3.36-47.19-3.36-58.73Z" transform="translate(-48 -24.25)"/><path class="cls-7" d="M397.76,386.68,371.3,416.93v-47.1h-5.05V475.75h5.05v-43.5l34.06-38.92Z" transform="translate(-48 -24.25)"/></svg>