<svg id="Capa_1" data-name="Capa 1" xmlns="http://www.w3.org/2000/svg" viewBox="0 0 439.23 342.94"><defs><style>.cls-1{fill:#c6975d;}.cls-2{fill:#4a4d4f;}.cls-3{fill:#37383a;}.cls-4{fill:#888c8e;}.cls-5{fill:#6d7072;}.cls-6{fill:#242526;}.cls-7{fill:#e8b878;}.cls-8{fill:#fccd31;}.cls-9{fill:#acacac;}.cls-10{fill:#2b49f7;}.cls-11{fill:#4768f4;}.cls-12{fill:#eceaec;}.cls-13{fill:#dbd8db;}.cls-14{fill:#9c9c9c;}.cls-15{fill:#5a5a5a;}.cls-16{fill:#444;}.cls-17{fill:#7092e8;}.cls-18{fill:#c1c1c1;}.cls-19{fill:#ed8945;}.cls-20{fill:#d76f42;}.cls-21{fill:#725539;}.cls-22{fill:#6b4c32;}</style></defs><path class="cls-1" d="M386.23,287.69l-2.12-6.33a11.09,11.09,0,0,0-10.55-7.61H343.84a11.11,11.11,0,0,0-10.56,7.61l-2.11,6.33L327,286.28l2.11-6.33a15.56,15.56,0,0,1,14.78-10.66h29.72A15.58,15.58,0,0,1,388.34,280l2.11,6.33Z" transform="translate(-41.8 -100)"/><path class="cls-2" d="M294.15,311.58V284.87h129.1v26.71Z" transform="translate(-41.8 -100)"/><path class="cls-3" d="M309.73,309.64q-7.86,0-15.58-.52v2.46h129.1V284.87H414A230.44,230.44,0,0,1,309.73,309.64Z" transform="translate(-41.8 -100)"/><path class="cls-4" d="M423.25,391.72H294.15V311.58h129.1Z" transform="translate(-41.8 -100)"/><path class="cls-5" d="M294.15,389.51v2.21h129.1V311.58h-4.18A153.55,153.55,0,0,1,294.15,389.51Z" transform="translate(-41.8 -100)"/><circle class="cls-5" cx="316.9" cy="251.65" r="28.94"/><path class="cls-2" d="M377.84,330a28.94,28.94,0,0,1-45,34.77,28.94,28.94,0,1,0,45-34.77Z" transform="translate(-41.8 -100)"/><path class="cls-6" d="M423.25,327.17v-4.46H407.67V311.58h-4.46v11.13H389.86V311.58h-4.45v11.13H372.05V311.58H367.6v11.13H349.79V311.58h-4.45v11.13H332V311.58h-4.45v11.13H314.18V311.58h-4.45v11.13H294.15v4.46h15.58v13.35H294.15V345h15.58v13.36H294.15v4.45h15.58v13.36H294.15v4.45h15.58v11.13h4.45V380.59h13.36v11.13H332V380.59h13.35v11.13h4.45V380.59H367.6v11.13h4.45V380.59h13.36v11.13h4.45V380.59h13.35v11.13h4.46V380.59h15.58v-4.45H407.67V362.78h15.58v-4.45H407.67V345h15.58v-4.45H407.67V327.17Zm-37.84,0v13.35H372.05V327.17ZM349.79,345H367.6v13.36H349.79Zm-4.45,13.36H332V345h13.35ZM372.05,345h13.36v13.36H372.05Zm-4.45-17.8v13.35H349.79V327.17Zm-22.26,0v13.35H332V327.17Zm-31.16,0h13.36v13.35H314.18Zm0,17.8h13.36v13.36H314.18Zm0,31.17V362.78h13.36v13.36Zm17.81,0V362.78h13.35v13.36Zm17.8,0V362.78H367.6v13.36Zm22.26,0V362.78h13.36v13.36Zm31.16,0H389.86V362.78h13.35Zm0-17.81H389.86V345h13.35Zm0-17.81H389.86V327.17h13.35Z" transform="translate(-41.8 -100)"/><circle class="cls-3" cx="316.9" cy="251.65" r="6.68"/><path class="cls-6" d="M363.09,346.63a6.67,6.67,0,0,1-11,5.87,6.67,6.67,0,1,0,11-5.87Z" transform="translate(-41.8 -100)"/><circle class="cls-7" cx="265.71" cy="198.23" r="4.45"/><path class="cls-1" d="M309.15,294.1a4.44,4.44,0,0,1-5.52,6.31,4.45,4.45,0,1,0,7.75-4.36A4.38,4.38,0,0,0,309.15,294.1Z" transform="translate(-41.8 -100)"/><circle class="cls-7" cx="283.51" cy="198.23" r="4.45"/><path class="cls-1" d="M327,294.1a4.44,4.44,0,0,1-5.53,6.31A4.45,4.45,0,1,0,327,294.1Z" transform="translate(-41.8 -100)"/><circle class="cls-7" cx="301.32" cy="198.23" r="4.45"/><path class="cls-1" d="M344.77,294.1a4.45,4.45,0,0,1-5.53,6.31,4.45,4.45,0,1,0,5.53-6.31Z" transform="translate(-41.8 -100)"/><circle class="cls-7" cx="319.13" cy="198.23" r="4.45"/><path class="cls-1" d="M362.57,294.1a4.44,4.44,0,0,1-5.52,6.31,4.45,4.45,0,1,0,7.75-4.36A4.34,4.34,0,0,0,362.57,294.1Z" transform="translate(-41.8 -100)"/><path class="cls-8" d="M381,296" transform="translate(-41.8 -100)"/><circle class="cls-8" cx="348.06" cy="198.23" r="2.23"/><circle class="cls-8" cx="356.97" cy="198.23" r="2.23"/><circle class="cls-8" cx="365.87" cy="198.23" r="2.23"/><path class="cls-9" d="M328.86,122.39a4.32,4.32,0,0,1-3.09-1.28l-13.65-13.65a4.37,4.37,0,0,1,6.18-6.18L332,114.93a4.36,4.36,0,0,1,0,6.18A4.32,4.32,0,0,1,328.86,122.39Z" transform="translate(-41.8 -100)"/><path class="cls-9" d="M312,132.81a4.32,4.32,0,0,1-3.09-1.28l-10.42-10.42a4.37,4.37,0,1,1,6.18-6.18l10.42,10.42a4.36,4.36,0,0,1,0,6.18A4.32,4.32,0,0,1,312,132.81Z" transform="translate(-41.8 -100)"/><path class="cls-9" d="M298.32,146.47a4.36,4.36,0,0,1-3.09-1.28l-10.42-10.42a4.37,4.37,0,1,1,6.18-6.18L301.41,139a4.37,4.37,0,0,1-3.09,7.46Z" transform="translate(-41.8 -100)"/><path class="cls-9" d="M352.93,146.47a4.4,4.4,0,0,1-3.09-1.28l-13.65-13.66a4.37,4.37,0,1,1,6.18-6.18L356,139a4.37,4.37,0,0,1-3.09,7.46Z" transform="translate(-41.8 -100)"/><path class="cls-9" d="M339.28,160.12a4.32,4.32,0,0,1-3.09-1.28l-13.65-13.65a4.37,4.37,0,1,1,6.18-6.18l13.65,13.65a4.36,4.36,0,0,1,0,6.18A4.32,4.32,0,0,1,339.28,160.12Z" transform="translate(-41.8 -100)"/><path class="cls-9" d="M325.63,173.78a4.36,4.36,0,0,1-3.09-1.28l-13.66-13.66a4.37,4.37,0,0,1,6.18-6.18l13.66,13.66a4.37,4.37,0,0,1-3.09,7.46Z" transform="translate(-41.8 -100)"/><path class="cls-10" d="M188.94,347.4c1-9.21,3-20.23,8.86-27.23,5.54-6.61,15.45-11.6,23.48-14.41,16.4-5.75,22.22-12.86,24.64-19.22,1.15-3-.61-5.23-3.84-5a60.65,60.65,0,0,1-11.52-.18c-1.1-.12-1.35-2.4-2.44-2.58-16.51-2.82-21.72-4.31-22.66-10.11-.8-4.95-5.5,2-4.46-12.71-3-5-1-4.94-1-14a27.08,27.08,0,0,0,0-10,36.79,36.79,0,0,0-5.1-11.12c-13-15.86-38.23-11.64-46.26,7.25-.56,1.32-1.11,2.73-1.63,4.22-2.81,8-7.51,16.89-14.13,22.43-7,5.86-17,6.41-26.18,7.36C78.82,265,59.4,291.09,63.9,318.91c2.46,15.21,10.07,29.95,20.79,42.15.44.51,2.79,0,3.24.53,13.38,14.63,30,23,48.66,26,27.81,4.5,49.46-12.28,52.35-40.16Z" transform="translate(-41.8 -100)"/><path class="cls-11" d="M135.47,386.46c-17.57-2.84-30.78-11.5-43.87-24.87-1.26-1.29-5.72.83-6.91-.53-.8-.9-1.57-1.82-2.33-2.75-1.86-2.27-3.61-4.63-5.24-7.05.67-3,4-9.08,4.7-10.3a29.93,29.93,0,0,1,15.27-13.08c5.59-2.2,11.59-2.2,17.51-2.07,34,.78,59.74-17.68,85.56-37.7,5-3.88,9.84-8,14.54-12.26l.73-.67a60.23,60.23,0,0,0,12.69,3.63c1.12.19.72,3.64,1.85,3.77a61.75,61.75,0,0,0,8.51.22c.76,0,7.54,1.88,6.11,5.67-2.39,6.39-6.81,11.51-23.31,17.29-8,2.81-16.21,4.9-21.75,11.52-5.86,7-10.07,19.38-11,28.59-2.89,27.87-25.22,45.09-53,40.59Z" transform="translate(-41.8 -100)"/><path class="cls-12" d="M247.7,287c-2.39,6.39-8.73,15-25.23,20.82-8,2.81-16.89,7.51-22.43,14.13-5.86,7-6.41,17-7.37,26.18-2.89,27.88-28.95,47.3-56.76,42.8-19.08-3.09-37.55-14.09-50.86-29.43l-.36-.42s3.81-10.26,4.66-11.77a29.93,29.93,0,0,1,15.27-13.08c5.59-2.2,11.59-2.2,17.51-2.07,34,.78,59.74-17.69,85.55-37.69,5-3.89,9.85-8,14.54-12.27l5.91-5.38a58.15,58.15,0,0,0,13.93.69A5.58,5.58,0,0,1,247.7,287Z" transform="translate(-41.8 -100)"/><path class="cls-13" d="M135.91,390.92a83.31,83.31,0,0,1-35.28-15.14,80.27,80.27,0,0,0,25.57,9C154,389.26,180.08,369.84,183,342c1-9.21,1.5-19.19,7.36-26.19,5.55-6.61,14.41-11.31,22.44-14.13,16.5-5.78,22.83-14.43,25.23-20.81a6.69,6.69,0,0,0,.3-1.19c1.24,0,2.49-.05,3.75-.14A5.58,5.58,0,0,1,247.7,287c-2.4,6.39-8.72,15-25.23,20.81-8,2.82-16.89,7.52-22.43,14.14-5.87,7-6.41,17-7.37,26.18-2.89,27.88-28.95,47.3-56.76,42.8Z" transform="translate(-41.8 -100)"/><circle class="cls-9" cx="89.54" cy="261.59" r="8.64"/><circle class="cls-9" cx="123.23" cy="252.34" r="8.64"/><path class="cls-14" d="M137.44,367.71a8.65,8.65,0,0,1-14.74-6.57,8.65,8.65,0,0,0,13-7,8.85,8.85,0,0,1,1.77,1.37,8.64,8.64,0,0,1,0,12.23Z" transform="translate(-41.8 -100)"/><path class="cls-14" d="M171.14,358.45a8.64,8.64,0,0,1-14.74-6.55,8.66,8.66,0,0,0,13-7,8.44,8.44,0,0,1,1.77,1.36A8.63,8.63,0,0,1,171.14,358.45Z" transform="translate(-41.8 -100)"/><path class="cls-9" d="M287.69,150.5,305.2,168,175.13,298.08l-17.51-17.51Z" transform="translate(-41.8 -100)"/><path class="cls-14" d="M296.44,159.26,305.2,168,175.13,298.08l-8.75-8.76Z" transform="translate(-41.8 -100)"/><path class="cls-15" d="M288.46,184.8,282.28,191h0l-8.76-8.76-8.76-8.75,6.18-6.18L279.7,176Z" transform="translate(-41.8 -100)"/><path class="cls-15" d="M266.23,207l-6.18,6.17h0l-17.51-17.51,6.18-6.17h0l8.76,8.75Z" transform="translate(-41.8 -100)"/><path class="cls-15" d="M220.3,217.92l8.75,8.76,8.76,8.76,6.18-6.18-8.75-8.76-8.76-8.75h0Z" transform="translate(-41.8 -100)"/><path class="cls-15" d="M221.76,251.49l-6.18,6.19-8.76-8.77-8.76-8.75,6.18-6.18,8.76,8.76Z" transform="translate(-41.8 -100)"/><path class="cls-15" d="M199.53,273.73l-6.19,6.18-8.75-8.76-8.76-8.76,6.18-6.18,8.75,8.76Z" transform="translate(-41.8 -100)"/><path class="cls-15" d="M349.29,119.42l-6.48-6.49-6.49-6.49-33,28.44L287.7,150.52l8.76,8.76,8.75,8.76,15.65-15.65Z" transform="translate(-41.8 -100)"/><path class="cls-16" d="M349.29,119.42l-28.43,33L305.21,168l-8.76-8.76h0l15.64-15.65,28.43-33,2.27,2.26Z" transform="translate(-41.8 -100)"/><path class="cls-17" d="M157.7,309.34a4.36,4.36,0,0,1-3.09-1.28l-6.93-6.93a4.37,4.37,0,1,1,6.18-6.18l6.93,6.93a4.37,4.37,0,0,1-3.09,7.46Z" transform="translate(-41.8 -100)"/><path class="cls-17" d="M147.89,319.15a4.36,4.36,0,0,1-3.09-1.28l-6.93-6.93a4.37,4.37,0,0,1,6.18-6.18l6.93,6.93a4.37,4.37,0,0,1-3.09,7.46Z" transform="translate(-41.8 -100)"/><path class="cls-18" d="M200.24,383a40.63,40.63,0,0,0,20.63,0,29.72,29.72,0,0,0,14.54-8.75c5.65-6.31,7.38-13.93,9.35-21.92A58.17,58.17,0,0,1,259,325.66c4.8-5,11.43-10.33,18.35-11.89,13.48-3,27.21,8.71,32.7,19.92,4.59,9.37,5.24,19.51,5.46,29.76A26.1,26.1,0,0,0,318.19,375c3.53,6.78,10.39,10.89,17.66,12.64,17.61,4.25,38.15-2.66,50.72-15.39,21.56-21.86,11.42-52.52-4.53-74.38-.94-1.28-3.11,0-2.16,1.26,14.57,20,25.31,48.14,6.83,69.29-11.78,13.48-32.57,21.06-50.2,16.81-7.59-1.83-14.56-6.37-17.23-14-2.2-6.28-1-13.24-1.8-19.74a55.34,55.34,0,0,0-6.78-21.83,39,39,0,0,0-23.45-18c-13.36-3.56-26.31,6.91-34,16.86-6.82,8.83-9.55,18.59-12.27,29.2-2.16,8.44-6.71,16.2-14.56,20.42-7.49,4-17.34,4.69-25.52,2.45a1.25,1.25,0,0,0-.67,2.41Z" transform="translate(-41.8 -100)"/><path class="cls-19" d="M196.14,381.07l2.24-3.71a1,1,0,0,1,1.35-.34l1.29.78a1.68,1.68,0,0,1,.57,2.3l-1.53,2.53a1.67,1.67,0,0,1-2.3.57l-1.29-.78A1,1,0,0,1,196.14,381.07Z" transform="translate(-41.8 -100)"/><path class="cls-20" d="M199.63,382l-2.14-1.29a1,1,0,0,0-1.35.34h0a1,1,0,0,0,.33,1.35l1.29.78a1.67,1.67,0,0,0,2.3-.57l.51-.84A.68.68,0,0,1,199.63,382Z" transform="translate(-41.8 -100)"/><path class="cls-19" d="M196.73,376.15l-2.42,4a1,1,0,0,1-.51.41l-1.7.61a1,1,0,0,1-.84-.08l-10.34-6.24a1.69,1.69,0,0,1-.57-2.3l3.16-5.23a1.69,1.69,0,0,1,2.3-.57L196.15,373a1,1,0,0,1,.46.7l.26,1.79A1,1,0,0,1,196.73,376.15Z" transform="translate(-41.8 -100)"/><path class="cls-20" d="M181.1,372.68a.69.69,0,0,1-.24-.94l-.5.84a1.67,1.67,0,0,0,.56,2.3l10.34,6.24a1,1,0,0,0,.84.08l.06,0a1,1,0,0,0,.18-1.77Z" transform="translate(-41.8 -100)"/><path class="cls-21" d="M192.17,380.51,196,374.1a1,1,0,0,1,1.35-.33l1.75,1.05a1.69,1.69,0,0,1,.57,2.3l-3.16,5.23a1.68,1.68,0,0,1-2.3.57l-1.75-1.05A1,1,0,0,1,192.17,380.51Z" transform="translate(-41.8 -100)"/><path class="cls-22" d="M196.11,381.74l-2.59-1.56a1,1,0,0,0-1.35.33h0a1,1,0,0,0,.33,1.36l1.75,1.05a1.68,1.68,0,0,0,2.3-.57l.51-.84A.69.69,0,0,1,196.11,381.74Z" transform="translate(-41.8 -100)"/><path d="M76.39,204.83a2.69,2.69,0,0,0-2.56-.21L59.51,211a2.68,2.68,0,0,0-1.6,2.45v33.68a10.63,10.63,0,0,0-5.37-1.45,10.75,10.75,0,1,0,10.74,10.75V225.93L76,220.28a2.71,2.71,0,0,0,1.6-2.46V207.08a2.68,2.68,0,0,0-1.22-2.25Z" transform="translate(-41.8 -100)"/><path d="M113.59,369.53a2.68,2.68,0,0,0-3.68-2.49L74.1,381.36a2.69,2.69,0,0,0-1.69,2.49v39a10.75,10.75,0,0,0-16.12,9.3,10.75,10.75,0,0,0,21.49,0V396.42l30.44-12.18v24.34a10.74,10.74,0,1,0,5.37,9.29Z" transform="translate(-41.8 -100)"/><path d="M386.94,360.76a2.71,2.71,0,0,0-2.56-.21l-14.32,6.37a2.69,2.69,0,0,0-1.6,2.46v33.67a10.62,10.62,0,0,0-5.37-1.44,10.74,10.74,0,1,0,10.74,10.74V381.86l12.73-5.65a2.7,2.7,0,0,0,1.6-2.46V363a2.68,2.68,0,0,0-1.22-2.25Z" transform="translate(-41.8 -100)"/><path d="M481,236.53a2.68,2.68,0,0,0-3.68-2.5l-35.81,14.33a2.67,2.67,0,0,0-1.69,2.49v39a10.74,10.74,0,1,0,5.37,9.3V263.41l30.44-12.17v24.33a10.74,10.74,0,1,0,5.37,9.3Z" transform="translate(-41.8 -100)"/></svg>